<svg width="18" height="18" viewBox="0 0 18 18" fill="none" xmlns="http://www.w3.org/2000/svg">
<path d="M3.75 2.25H5.25V3.75H3.75V7.5C3.75 7.89782 3.59196 8.27936 3.31066 8.56066C3.02936 8.84196 2.64782 9 2.25 9C2.64782 9 3.02936 9.15804 3.31066 9.43934C3.59196 9.72064 3.75 10.1022 3.75 10.5V14.25H5.25V15.75H3.75C2.9475 15.5475 2.25 15.075 2.25 14.25V11.25C2.25 10.8522 2.09196 10.4706 1.81066 10.1893C1.52936 9.90804 1.14782 9.75 0.75 9.75H0V8.25H0.75C1.14782 8.25 1.52936 8.09196 1.81066 7.81066C2.09196 7.52936 2.25 7.14782 2.25 6.75V3.75C2.25 3.35218 2.40804 2.97064 2.68934 2.68934C2.97064 2.40804 3.35218 2.25 3.75 2.25ZM14.25 2.25C14.6478 2.25 15.0294 2.40804 15.3107 2.68934C15.592 2.97064 15.75 3.35218 15.75 3.75V6.75C15.75 7.14782 15.908 7.52936 16.1893 7.81066C16.4706 8.09196 16.8522 8.25 17.25 8.25H18V9.75H17.25C16.8522 9.75 16.4706 9.90804 16.1893 10.1893C15.908 10.4706 15.75 10.8522 15.75 11.25V14.25C15.75 14.6478 15.592 15.0294 15.3107 15.3107C15.0294 15.592 14.6478 15.75 14.25 15.75H12.75V14.25H14.25V10.5C14.25 10.1022 14.408 9.72064 14.6893 9.43934C14.9706 9.15804 15.3522 9 15.75 9C15.3522 9 14.9706 8.84196 14.6893 8.56066C14.408 8.27936 14.25 7.89782 14.25 7.5V3.75H12.75V2.25H14.25ZM9 11.25C9.19891 11.25 9.38968 11.329 9.53033 11.4697C9.67098 11.6103 9.75 11.8011 9.75 12C9.75 12.1989 9.67098 12.3897 9.53033 12.5303C9.38968 12.671 9.19891 12.75 9 12.75C8.80109 12.75 8.61032 12.671 8.46967 12.5303C8.32902 12.3897 8.25 12.1989 8.25 12C8.25 11.8011 8.32902 11.6103 8.46967 11.4697C8.61032 11.329 8.80109 11.25 9 11.25ZM6 11.25C6.19891 11.25 6.38968 11.329 6.53033 11.4697C6.67098 11.6103 6.75 11.8011 6.75 12C6.75 12.1989 6.67098 12.3897 6.53033 12.5303C6.38968 12.671 6.19891 12.75 6 12.75C5.80109 12.75 5.61032 12.671 5.46967 12.5303C5.32902 12.3897 5.25 12.1989 5.25 12C5.25 11.8011 5.32902 11.6103 5.46967 11.4697C5.61032 11.329 5.80109 11.25 6 11.25ZM12 11.25C12.1989 11.25 12.3897 11.329 12.5303 11.4697C12.671 11.6103 12.75 11.8011 12.75 12C12.75 12.1989 12.671 12.3897 12.5303 12.5303C12.3897 12.671 12.1989 12.75 12 12.75C11.8011 12.75 11.6103 12.671 11.4697 12.5303C11.329 12.3897 11.25 12.1989 11.25 12C11.25 11.8011 11.329 11.6103 11.4697 11.4697C11.6103 11.329 11.8011 11.25 12 11.25Z" fill="white"/>
</svg>
