<svg width="115" height="81" viewBox="0 0 115 81" fill="none" xmlns="http://www.w3.org/2000/svg">
<g clip-path="url(#clip0)">
<path d="M40.8026 72.6356C40.8026 72.3129 40.541 72.0512 40.2182 72.0512C39.8956 72.0512 39.6339 72.3129 39.6339 72.6356C39.6339 72.9583 39.8956 73.2199 40.2182 73.2199C40.541 73.2199 40.8026 72.9583 40.8026 72.6356Z" fill="#3FB773"/>
<path d="M40.7054 59.6968C40.7054 59.3741 40.4438 59.1125 40.1211 59.1125C39.7983 59.1125 39.5367 59.3741 39.5367 59.6968C39.5367 60.0195 39.7983 60.2812 40.1211 60.2812C40.4438 60.2812 40.7054 60.0195 40.7054 59.6968Z" fill="#3FB773"/>
<path d="M44.5175 66.166C44.5175 65.8433 44.2558 65.5817 43.9332 65.5817C43.6104 65.5817 43.3489 65.8433 43.3489 66.166C43.3489 66.4887 43.6104 66.7504 43.9332 66.7504C44.2558 66.7504 44.5175 66.4887 44.5175 66.166Z" fill="#3FB773"/>
<path d="M48.3435 72.6356C48.3435 72.3129 48.0818 72.0512 47.7591 72.0512C47.4364 72.0512 47.1748 72.3129 47.1748 72.6356C47.1748 72.9583 47.4364 73.2199 47.7591 73.2199C48.0818 73.2199 48.3435 72.9583 48.3435 72.6356Z" fill="#3FB773"/>
<path d="M37.3943 40.2888C37.3943 39.6204 36.8523 39.0785 36.1839 39.0785C35.5154 39.0785 34.9735 39.6204 34.9735 40.2888C34.9735 40.9572 35.5154 41.4992 36.1839 41.4992C36.8523 41.4992 37.3943 40.9572 37.3943 40.2888Z" fill="#3FB773"/>
<path d="M41.2202 46.7581C41.2202 46.0896 40.6782 45.5477 40.0098 45.5477C39.3413 45.5477 38.7994 46.0896 38.7994 46.7581C38.7994 47.4264 39.3413 47.9684 40.0098 47.9684C40.6782 47.9684 41.2202 47.4264 41.2202 46.7581Z" fill="#3FB773"/>
<path d="M45.0461 53.2276C45.0461 52.5591 44.5041 52.0172 43.8358 52.0172C43.1673 52.0172 42.6254 52.5591 42.6254 53.2276C42.6254 53.8961 43.1673 54.438 43.8358 54.438C44.5041 54.438 45.0461 53.8961 45.0461 53.2276Z" fill="#3FB773"/>
<path d="M48.8721 59.6968C48.8721 59.0283 48.33 58.4864 47.6617 58.4864C46.9932 58.4864 46.4513 59.0283 46.4513 59.6968C46.4513 60.3653 46.9932 60.9072 47.6617 60.9072C48.33 60.9072 48.8721 60.3653 48.8721 59.6968Z" fill="#3FB773"/>
<path d="M52.6842 66.166C52.6842 65.4975 52.1422 64.9556 51.4738 64.9556C50.8053 64.9556 50.2634 65.4975 50.2634 66.166C50.2634 66.8345 50.8053 67.3764 51.4738 67.3764C52.1422 67.3764 52.6842 66.8345 52.6842 66.166Z" fill="#3FB773"/>
<path d="M55.8839 72.6356C55.8839 72.3129 55.6223 72.0512 55.2995 72.0512C54.9768 72.0512 54.7152 72.3129 54.7152 72.6356C54.7152 72.9583 54.9768 73.2199 55.2995 73.2199C55.6223 73.2199 55.8839 72.9583 55.8839 72.6356Z" fill="#3FB773"/>
<path d="M46.1453 40.2887C46.1453 38.9518 45.0615 37.8679 43.7245 37.8679C42.3875 37.8679 41.3037 38.9518 41.3037 40.2887C41.3037 41.6257 42.3875 42.7095 43.7245 42.7095C45.0615 42.7095 46.1453 41.6257 46.1453 40.2887Z" fill="#3FB773"/>
<path d="M49.9712 46.7579C49.9712 45.421 48.8874 44.3371 47.5504 44.3371C46.2134 44.3371 45.1296 45.421 45.1296 46.7579C45.1296 48.0949 46.2134 49.1786 47.5504 49.1786C48.8874 49.1786 49.9712 48.0949 49.9712 46.7579Z" fill="#3FB773"/>
<path d="M53.7971 53.2274C53.7971 51.8904 52.7133 50.8066 51.3763 50.8066C50.0394 50.8066 48.9556 51.8904 48.9556 53.2274C48.9556 54.5643 50.0394 55.6482 51.3763 55.6482C52.7133 55.6482 53.7971 54.5643 53.7971 53.2274Z" fill="#3FB773"/>
<path d="M57.6091 59.6969C57.6091 58.3601 56.5253 57.2761 55.1884 57.2761C53.8514 57.2761 52.7676 58.3601 52.7676 59.6969C52.7676 61.0339 53.8514 62.1177 55.1884 62.1177C56.5253 62.1177 57.6091 61.0339 57.6091 59.6969Z" fill="#3FB773"/>
<path d="M60.2246 66.1659C60.2246 65.4975 59.6827 64.9556 59.0142 64.9556C58.3457 64.9556 57.8038 65.4975 57.8038 66.1659C57.8038 66.8344 58.3457 67.3763 59.0142 67.3763C59.6827 67.3763 60.2246 66.8344 60.2246 66.1659Z" fill="#3FB773"/>
<path d="M63.4244 72.6356C63.4244 72.3129 63.1628 72.0512 62.8401 72.0512C62.5174 72.0512 62.2557 72.3129 62.2557 72.6356C62.2557 72.9583 62.5174 73.2199 62.8401 73.2199C63.1628 73.2199 63.4244 72.9583 63.4244 72.6356Z" fill="#3FB773"/>
<path d="M53.6857 40.2887C53.6857 38.9518 52.6019 37.8679 51.2649 37.8679C49.928 37.8679 48.8441 38.9518 48.8441 40.2887C48.8441 41.6257 49.928 42.7095 51.2649 42.7095C52.6019 42.7095 53.6857 41.6257 53.6857 40.2887Z" fill="#3FB773"/>
<path d="M57.5117 46.7579C57.5117 45.421 56.4279 44.3371 55.0909 44.3371C53.7541 44.3371 52.6702 45.421 52.6702 46.7579C52.6702 48.0949 53.7541 49.1786 55.0909 49.1786C56.4279 49.1786 57.5117 48.0949 57.5117 46.7579Z" fill="#3FB773"/>
<path d="M61.3237 53.2274C61.3237 51.8904 60.24 50.8066 58.903 50.8066C57.5661 50.8066 56.4822 51.8904 56.4822 53.2274C56.4822 54.5643 57.5661 55.6482 58.903 55.6482C60.24 55.6482 61.3237 54.5643 61.3237 53.2274Z" fill="#3FB773"/>
<path d="M65.1495 59.6969C65.1495 58.3601 64.0658 57.2761 62.7288 57.2761C61.3919 57.2761 60.308 58.3601 60.308 59.6969C60.308 61.0339 61.3919 62.1177 62.7288 62.1177C64.0658 62.1177 65.1495 61.0339 65.1495 59.6969Z" fill="#3FB773"/>
<path d="M67.765 66.1659C67.765 65.4975 67.2231 64.9556 66.5546 64.9556C65.8861 64.9556 65.3442 65.4975 65.3442 66.1659C65.3442 66.8344 65.8861 67.3763 66.5546 67.3763C67.2231 67.3763 67.765 66.8344 67.765 66.1659Z" fill="#3FB773"/>
<path d="M70.9652 72.6356C70.9652 72.3129 70.7036 72.0512 70.3808 72.0512C70.0581 72.0512 69.7965 72.3129 69.7965 72.6356C69.7965 72.9583 70.0581 73.2199 70.3808 73.2199C70.7036 73.2199 70.9652 72.9583 70.9652 72.6356Z" fill="#3FB773"/>
<path d="M60.016 40.2888C60.016 39.6204 59.4741 39.0785 58.8056 39.0785C58.1371 39.0785 57.5952 39.6204 57.5952 40.2888C57.5952 40.9572 58.1371 41.4992 58.8056 41.4992C59.4741 41.4992 60.016 40.9572 60.016 40.2888Z" fill="#3FB773"/>
<path d="M63.828 46.7581C63.828 46.0896 63.286 45.5477 62.6176 45.5477C61.9491 45.5477 61.4072 46.0896 61.4072 46.7581C61.4072 47.4264 61.9491 47.9684 62.6176 47.9684C63.286 47.9684 63.828 47.4264 63.828 46.7581Z" fill="#3FB773"/>
<path d="M67.6541 53.2276C67.6541 52.5591 67.112 52.0172 66.4437 52.0172C65.7752 52.0172 65.2333 52.5591 65.2333 53.2276C65.2333 53.8961 65.7752 54.438 66.4437 54.438C67.112 54.438 67.6541 53.8961 67.6541 53.2276Z" fill="#3FB773"/>
<path d="M71.48 59.6968C71.48 59.0283 70.938 58.4864 70.2696 58.4864C69.6011 58.4864 69.0592 59.0283 69.0592 59.6968C69.0592 60.3653 69.6011 60.9072 70.2696 60.9072C70.938 60.9072 71.48 60.3653 71.48 59.6968Z" fill="#3FB773"/>
<path d="M74.6798 66.166C74.6798 65.8433 74.4182 65.5817 74.0954 65.5817C73.7728 65.5817 73.5111 65.8433 73.5111 66.166C73.5111 66.4887 73.7728 66.7504 74.0954 66.7504C74.4182 66.7504 74.6798 66.4887 74.6798 66.166Z" fill="#3FB773"/>
<path d="M78.5057 72.6356C78.5057 72.3129 78.2441 72.0512 77.9214 72.0512C77.5987 72.0512 77.337 72.3129 77.337 72.6356C77.337 72.9583 77.5987 73.2199 77.9214 73.2199C78.2441 73.2199 78.5057 72.9583 78.5057 72.6356Z" fill="#3FB773"/>
<path d="M66.9165 40.2889C66.9165 39.9663 66.6549 39.7046 66.3321 39.7046C66.0095 39.7046 65.7478 39.9663 65.7478 40.2889C65.7478 40.6117 66.0095 40.8732 66.3321 40.8732C66.6549 40.8732 66.9165 40.6117 66.9165 40.2889Z" fill="#3FB773"/>
<path d="M70.7424 46.7581C70.7424 46.4354 70.4808 46.1738 70.1581 46.1738C69.8354 46.1738 69.5737 46.4354 69.5737 46.7581C69.5737 47.0808 69.8354 47.3425 70.1581 47.3425C70.4808 47.3425 70.7424 47.0808 70.7424 46.7581Z" fill="#3FB773"/>
<path d="M74.5683 53.2273C74.5683 52.9045 74.3068 52.643 73.984 52.643C73.6614 52.643 73.3997 52.9045 73.3997 53.2273C73.3997 53.5501 73.6614 53.8116 73.984 53.8116C74.3068 53.8116 74.5683 53.5501 74.5683 53.2273Z" fill="#3FB773"/>
<path d="M78.3942 59.6968C78.3942 59.3741 78.1327 59.1125 77.8099 59.1125C77.4873 59.1125 77.2256 59.3741 77.2256 59.6968C77.2256 60.0195 77.4873 60.2812 77.8099 60.2812C78.1327 60.2812 78.3942 60.0195 78.3942 59.6968Z" fill="#3FB773"/>
<path d="M82.2202 66.166C82.2202 65.8433 81.9586 65.5817 81.6358 65.5817C81.3132 65.5817 81.0515 65.8433 81.0515 66.166C81.0515 66.4887 81.3132 66.7504 81.6358 66.7504C81.9586 66.7504 82.2202 66.4887 82.2202 66.166Z" fill="#3FB773"/>
<path d="M74.4572 40.2889C74.4572 39.9663 74.1957 39.7046 73.8729 39.7046C73.5501 39.7046 73.2886 39.9663 73.2886 40.2889C73.2886 40.6117 73.5501 40.8732 73.8729 40.8732C74.1957 40.8732 74.4572 40.6117 74.4572 40.2889Z" fill="#3FB773"/>
<path d="M78.2833 46.7581C78.2833 46.4354 78.0217 46.1738 77.699 46.1738C77.3762 46.1738 77.1146 46.4354 77.1146 46.7581C77.1146 47.0808 77.3762 47.3425 77.699 47.3425C78.0217 47.3425 78.2833 47.0808 78.2833 46.7581Z" fill="#3FB773"/>
<path d="M82.1092 53.2273C82.1092 52.9045 81.8477 52.643 81.5249 52.643C81.2021 52.643 80.9406 52.9045 80.9406 53.2273C80.9406 53.5501 81.2021 53.8116 81.5249 53.8116C81.8477 53.8116 82.1092 53.5501 82.1092 53.2273Z" fill="#3FB773"/>
<path d="M85.935 59.6968C85.935 59.3741 85.6735 59.1125 85.3507 59.1125C85.0279 59.1125 84.7664 59.3741 84.7664 59.6968C84.7664 60.0195 85.0279 60.2812 85.3507 60.2812C85.6735 60.2812 85.935 60.0195 85.935 59.6968Z" fill="#3FB773"/>
<path d="M81.9976 40.2889C81.9976 39.9663 81.7361 39.7046 81.4133 39.7046C81.0907 39.7046 80.829 39.9663 80.829 40.2889C80.829 40.6117 81.0907 40.8732 81.4133 40.8732C81.7361 40.8732 81.9976 40.6117 81.9976 40.2889Z" fill="#3FB773"/>
<path d="M85.8237 46.7581C85.8237 46.4354 85.5621 46.1738 85.2394 46.1738C84.9167 46.1738 84.655 46.4354 84.655 46.7581C84.655 47.0808 84.9167 47.3425 85.2394 47.3425C85.5621 47.3425 85.8237 47.0808 85.8237 46.7581Z" fill="#3FB773"/>
<path d="M89.6496 53.2273C89.6496 52.9045 89.3881 52.643 89.0653 52.643C88.7427 52.643 88.481 52.9045 88.481 53.2273C88.481 53.5501 88.7427 53.8116 89.0653 53.8116C89.3881 53.8116 89.6496 53.5501 89.6496 53.2273Z" fill="#3FB773"/>
<path d="M89.5382 40.2889C89.5382 39.9663 89.2766 39.7046 88.9538 39.7046C88.6312 39.7046 88.3695 39.9663 88.3695 40.2889C88.3695 40.6117 88.6312 40.8732 88.9538 40.8732C89.2766 40.8732 89.5382 40.6117 89.5382 40.2889Z" fill="#3FB773"/>
<path d="M93.3641 46.7581C93.3641 46.4354 93.1025 46.1738 92.7798 46.1738C92.4571 46.1738 92.1954 46.4354 92.1954 46.7581C92.1954 47.0808 92.4571 47.3425 92.7798 47.3425C93.1025 47.3425 93.3641 47.0808 93.3641 46.7581Z" fill="#3FB773"/>
<path d="M97.0791 40.2889C97.0791 39.9663 96.8175 39.7046 96.4947 39.7046C96.1721 39.7046 95.9104 39.9663 95.9104 40.2889C95.9104 40.6117 96.1721 40.8732 96.4947 40.8732C96.8175 40.8732 97.0791 40.6117 97.0791 40.2889Z" fill="#3FB773"/>
<path d="M40.8026 8.02571C40.8026 7.70308 40.541 7.44138 40.2182 7.44138C39.8956 7.44138 39.6339 7.70308 39.6339 8.02571C39.6339 8.34848 39.8956 8.61017 40.2182 8.61017C40.541 8.61017 40.8026 8.34848 40.8026 8.02571Z" fill="#3FB773"/>
<path d="M40.7054 20.9781C40.7054 20.6554 40.4438 20.3938 40.1211 20.3938C39.7983 20.3938 39.5367 20.6554 39.5367 20.9781C39.5367 21.3008 39.7983 21.5625 40.1211 21.5625C40.4438 21.5625 40.7054 21.3008 40.7054 20.9781Z" fill="#3FB773"/>
<path d="M44.5175 14.4949C44.5175 14.1723 44.2558 13.9107 43.9332 13.9107C43.6104 13.9107 43.3489 14.1723 43.3489 14.4949C43.3489 14.8177 43.6104 15.0794 43.9332 15.0794C44.2558 15.0794 44.5175 14.8177 44.5175 14.4949Z" fill="#3FB773"/>
<path d="M48.3435 8.02571C48.3435 7.70308 48.0818 7.44138 47.7591 7.44138C47.4364 7.44138 47.1748 7.70308 47.1748 8.02571C47.1748 8.34848 47.4364 8.61017 47.7591 8.61017C48.0818 8.61017 48.3435 8.34848 48.3435 8.02571Z" fill="#3FB773"/>
<path d="M37.3943 40.3863C37.3943 39.7178 36.8523 39.1759 36.1839 39.1759C35.5154 39.1759 34.9735 39.7178 34.9735 40.3863C34.9735 41.0548 35.5154 41.5967 36.1839 41.5967C36.8523 41.5967 37.3943 41.0548 37.3943 40.3863Z" fill="#3FB773"/>
<path d="M41.2202 33.9167C41.2202 33.2483 40.6782 32.7064 40.0098 32.7064C39.3413 32.7064 38.7994 33.2483 38.7994 33.9167C38.7994 34.5852 39.3413 35.1272 40.0098 35.1272C40.6782 35.1272 41.2202 34.5852 41.2202 33.9167Z" fill="#3FB773"/>
<path d="M45.0461 27.4473C45.0461 26.7788 44.5041 26.2369 43.8358 26.2369C43.1673 26.2369 42.6254 26.7788 42.6254 27.4473C42.6254 28.1158 43.1673 28.6577 43.8358 28.6577C44.5041 28.6577 45.0461 28.1158 45.0461 27.4473Z" fill="#3FB773"/>
<path d="M48.8721 20.9781C48.8721 20.3096 48.33 19.7677 47.6617 19.7677C46.9932 19.7677 46.4513 20.3096 46.4513 20.9781C46.4513 21.6466 46.9932 22.1885 47.6617 22.1885C48.33 22.1885 48.8721 21.6466 48.8721 20.9781Z" fill="#3FB773"/>
<path d="M52.6842 14.495C52.6842 13.8265 52.1422 13.2846 51.4738 13.2846C50.8053 13.2846 50.2634 13.8265 50.2634 14.495C50.2634 15.1635 50.8053 15.7054 51.4738 15.7054C52.1422 15.7054 52.6842 15.1635 52.6842 14.495Z" fill="#3FB773"/>
<path d="M55.8839 8.02571C55.8839 7.70308 55.6223 7.44138 55.2995 7.44138C54.9768 7.44138 54.7152 7.70308 54.7152 8.02571C54.7152 8.34848 54.9768 8.61017 55.2995 8.61017C55.6223 8.61017 55.8839 8.34848 55.8839 8.02571Z" fill="#3FB773"/>
<path d="M46.1453 40.3862C46.1453 39.0492 45.0615 37.9654 43.7245 37.9654C42.3875 37.9654 41.3037 39.0492 41.3037 40.3862C41.3037 41.7232 42.3875 42.8069 43.7245 42.8069C45.0615 42.8069 46.1453 41.7232 46.1453 40.3862Z" fill="#3FB773"/>
<path d="M49.9712 33.9166C49.9712 32.5796 48.8874 31.4959 47.5504 31.4959C46.2134 31.4959 45.1296 32.5796 45.1296 33.9166C45.1296 35.2536 46.2134 36.3374 47.5504 36.3374C48.8874 36.3374 49.9712 35.2536 49.9712 33.9166Z" fill="#3FB773"/>
<path d="M53.7971 27.4474C53.7971 26.1105 52.7133 25.0267 51.3763 25.0267C50.0394 25.0267 48.9556 26.1105 48.9556 27.4474C48.9556 28.7844 50.0394 29.8682 51.3763 29.8682C52.7133 29.8682 53.7971 28.7844 53.7971 27.4474Z" fill="#3FB773"/>
<path d="M57.6091 20.9784C57.6091 19.6414 56.5253 18.5576 55.1884 18.5576C53.8514 18.5576 52.7676 19.6414 52.7676 20.9784C52.7676 22.3152 53.8514 23.399 55.1884 23.399C56.5253 23.399 57.6091 22.3152 57.6091 20.9784Z" fill="#3FB773"/>
<path d="M60.2246 14.495C60.2246 13.8265 59.6827 13.2846 59.0142 13.2846C58.3457 13.2846 57.8038 13.8265 57.8038 14.495C57.8038 15.1635 58.3457 15.7054 59.0142 15.7054C59.6827 15.7054 60.2246 15.1635 60.2246 14.495Z" fill="#3FB773"/>
<path d="M63.4244 8.02571C63.4244 7.70308 63.1628 7.44138 62.8401 7.44138C62.5174 7.44138 62.2557 7.70308 62.2557 8.02571C62.2557 8.34848 62.5174 8.61017 62.8401 8.61017C63.1628 8.61017 63.4244 8.34848 63.4244 8.02571Z" fill="#3FB773"/>
<path d="M53.6857 40.3862C53.6857 39.0492 52.6019 37.9654 51.2649 37.9654C49.928 37.9654 48.8441 39.0492 48.8441 40.3862C48.8441 41.7232 49.928 42.8069 51.2649 42.8069C52.6019 42.8069 53.6857 41.7232 53.6857 40.3862Z" fill="#3FB773"/>
<path d="M57.5117 33.9166C57.5117 32.5796 56.4279 31.4959 55.0909 31.4959C53.7541 31.4959 52.6702 32.5796 52.6702 33.9166C52.6702 35.2536 53.7541 36.3374 55.0909 36.3374C56.4279 36.3374 57.5117 35.2536 57.5117 33.9166Z" fill="#3FB773"/>
<path d="M61.3237 27.4474C61.3237 26.1105 60.24 25.0267 58.903 25.0267C57.5661 25.0267 56.4822 26.1105 56.4822 27.4474C56.4822 28.7844 57.5661 29.8682 58.903 29.8682C60.24 29.8682 61.3237 28.7844 61.3237 27.4474Z" fill="#3FB773"/>
<path d="M65.1495 20.9784C65.1495 19.6414 64.0658 18.5576 62.7288 18.5576C61.3919 18.5576 60.308 19.6414 60.308 20.9784C60.308 22.3152 61.3919 23.399 62.7288 23.399C64.0658 23.399 65.1495 22.3152 65.1495 20.9784Z" fill="#3FB773"/>
<path d="M67.765 14.495C67.765 13.8265 67.2231 13.2846 66.5546 13.2846C65.8861 13.2846 65.3442 13.8265 65.3442 14.495C65.3442 15.1635 65.8861 15.7054 66.5546 15.7054C67.2231 15.7054 67.765 15.1635 67.765 14.495Z" fill="#3FB773"/>
<path d="M70.9652 8.02571C70.9652 7.70308 70.7036 7.44138 70.3808 7.44138C70.0581 7.44138 69.7965 7.70308 69.7965 8.02571C69.7965 8.34848 70.0581 8.61017 70.3808 8.61017C70.7036 8.61017 70.9652 8.34848 70.9652 8.02571Z" fill="#3FB773"/>
<path d="M60.016 40.3863C60.016 39.7178 59.4741 39.1759 58.8056 39.1759C58.1371 39.1759 57.5952 39.7178 57.5952 40.3863C57.5952 41.0548 58.1371 41.5967 58.8056 41.5967C59.4741 41.5967 60.016 41.0548 60.016 40.3863Z" fill="#3FB773"/>
<path d="M61.8416 40.3862C61.8416 39.0492 60.7578 37.9654 59.4208 37.9654C58.0839 37.9654 57 39.0492 57 40.3862C57 41.7232 58.0839 42.8069 59.4208 42.8069C60.7578 42.8069 61.8416 41.7232 61.8416 40.3862Z" fill="#3FB773"/>
<path d="M68.8416 40.3862C68.8416 39.0492 67.7578 37.9654 66.4208 37.9654C65.0839 37.9654 64 39.0492 64 40.3862C64 41.7232 65.0839 42.8069 66.4208 42.8069C67.7578 42.8069 68.8416 41.7232 68.8416 40.3862Z" fill="#3FB773"/>
<path d="M65.8416 46.4208C65.8416 45.0838 64.7578 44 63.4208 44C62.0839 44 61 45.0838 61 46.4208C61 47.7578 62.0839 48.8416 63.4208 48.8416C64.7578 48.8416 65.8416 47.7578 65.8416 46.4208Z" fill="#3FB773"/>
<path d="M64.8416 34.4208C64.8416 33.0838 63.7578 32 62.4208 32C61.0839 32 60 33.0838 60 34.4208C60 35.7578 61.0839 36.8416 62.4208 36.8416C63.7578 36.8416 64.8416 35.7578 64.8416 34.4208Z" fill="#3FB773"/>
<path d="M63.828 33.9167C63.828 33.2483 63.286 32.7064 62.6176 32.7064C61.9491 32.7064 61.4072 33.2483 61.4072 33.9167C61.4072 34.5852 61.9491 35.1272 62.6176 35.1272C63.286 35.1272 63.828 34.5852 63.828 33.9167Z" fill="#3FB773"/>
<path d="M67.6541 27.4473C67.6541 26.7788 67.112 26.2369 66.4437 26.2369C65.7752 26.2369 65.2333 26.7788 65.2333 27.4473C65.2333 28.1158 65.7752 28.6577 66.4437 28.6577C67.112 28.6577 67.6541 28.1158 67.6541 27.4473Z" fill="#3FB773"/>
<path d="M71.48 20.9781C71.48 20.3096 70.938 19.7677 70.2696 19.7677C69.6011 19.7677 69.0592 20.3096 69.0592 20.9781C69.0592 21.6466 69.6011 22.1885 70.2696 22.1885C70.938 22.1885 71.48 21.6466 71.48 20.9781Z" fill="#3FB773"/>
<path d="M74.6798 14.4949C74.6798 14.1723 74.4182 13.9107 74.0954 13.9107C73.7728 13.9107 73.5111 14.1723 73.5111 14.4949C73.5111 14.8177 73.7728 15.0794 74.0954 15.0794C74.4182 15.0794 74.6798 14.8177 74.6798 14.4949Z" fill="#3FB773"/>
<path d="M78.5057 8.02571C78.5057 7.70308 78.2441 7.44138 77.9214 7.44138C77.5987 7.44138 77.337 7.70308 77.337 8.02571C77.337 8.34848 77.5987 8.61017 77.9214 8.61017C78.2441 8.61017 78.5057 8.34848 78.5057 8.02571Z" fill="#3FB773"/>
<path d="M66.9165 40.3861C66.9165 40.0634 66.6549 39.8017 66.3321 39.8017C66.0095 39.8017 65.7478 40.0634 65.7478 40.3861C65.7478 40.7088 66.0095 40.9704 66.3321 40.9704C66.6549 40.9704 66.9165 40.7088 66.9165 40.3861Z" fill="#3FB773"/>
<path d="M70.7424 33.9169C70.7424 33.5941 70.4808 33.3326 70.1581 33.3326C69.8354 33.3326 69.5737 33.5941 69.5737 33.9169C69.5737 34.2397 69.8354 34.5012 70.1581 34.5012C70.4808 34.5012 70.7424 34.2397 70.7424 33.9169Z" fill="#3FB773"/>
<path d="M74.5683 27.4477C74.5683 27.1249 74.3068 26.8634 73.984 26.8634C73.6614 26.8634 73.3997 27.1249 73.3997 27.4477C73.3997 27.7705 73.6614 28.032 73.984 28.032C74.3068 28.032 74.5683 27.7705 74.5683 27.4477Z" fill="#3FB773"/>
<path d="M78.3942 20.9781C78.3942 20.6554 78.1327 20.3938 77.8099 20.3938C77.4873 20.3938 77.2256 20.6554 77.2256 20.9781C77.2256 21.3008 77.4873 21.5625 77.8099 21.5625C78.1327 21.5625 78.3942 21.3008 78.3942 20.9781Z" fill="#3FB773"/>
<path d="M82.2202 14.4949C82.2202 14.1723 81.9586 13.9107 81.6358 13.9107C81.3132 13.9107 81.0515 14.1723 81.0515 14.4949C81.0515 14.8177 81.3132 15.0794 81.6358 15.0794C81.9586 15.0794 82.2202 14.8177 82.2202 14.4949Z" fill="#3FB773"/>
<path d="M74.4572 40.3861C74.4572 40.0634 74.1957 39.8017 73.8729 39.8017C73.5501 39.8017 73.2886 40.0634 73.2886 40.3861C73.2886 40.7088 73.5501 40.9704 73.8729 40.9704C74.1957 40.9704 74.4572 40.7088 74.4572 40.3861Z" fill="#3FB773"/>
<path d="M78.2833 33.9169C78.2833 33.5941 78.0217 33.3326 77.699 33.3326C77.3762 33.3326 77.1146 33.5941 77.1146 33.9169C77.1146 34.2397 77.3762 34.5012 77.699 34.5012C78.0217 34.5012 78.2833 34.2397 78.2833 33.9169Z" fill="#3FB773"/>
<path d="M82.1092 27.4477C82.1092 27.1249 81.8477 26.8634 81.5249 26.8634C81.2021 26.8634 80.9406 27.1249 80.9406 27.4477C80.9406 27.7705 81.2021 28.032 81.5249 28.032C81.8477 28.032 82.1092 27.7705 82.1092 27.4477Z" fill="#3FB773"/>
<path d="M85.935 20.9781C85.935 20.6554 85.6735 20.3938 85.3507 20.3938C85.0279 20.3938 84.7664 20.6554 84.7664 20.9781C84.7664 21.3008 85.0279 21.5625 85.3507 21.5625C85.6735 21.5625 85.935 21.3008 85.935 20.9781Z" fill="#3FB773"/>
<path d="M81.9976 40.3861C81.9976 40.0634 81.7361 39.8017 81.4133 39.8017C81.0907 39.8017 80.829 40.0634 80.829 40.3861C80.829 40.7088 81.0907 40.9704 81.4133 40.9704C81.7361 40.9704 81.9976 40.7088 81.9976 40.3861Z" fill="#3FB773"/>
<path d="M85.8237 33.9169C85.8237 33.5941 85.5621 33.3326 85.2394 33.3326C84.9167 33.3326 84.655 33.5941 84.655 33.9169C84.655 34.2397 84.9167 34.5012 85.2394 34.5012C85.5621 34.5012 85.8237 34.2397 85.8237 33.9169Z" fill="#3FB773"/>
<path d="M89.6496 27.4477C89.6496 27.1249 89.3881 26.8634 89.0653 26.8634C88.7427 26.8634 88.481 27.1249 88.481 27.4477C88.481 27.7705 88.7427 28.032 89.0653 28.032C89.3881 28.032 89.6496 27.7705 89.6496 27.4477Z" fill="#3FB773"/>
<path d="M89.5382 40.3861C89.5382 40.0634 89.2766 39.8017 88.9538 39.8017C88.6312 39.8017 88.3695 40.0634 88.3695 40.3861C88.3695 40.7088 88.6312 40.9704 88.9538 40.9704C89.2766 40.9704 89.5382 40.7088 89.5382 40.3861Z" fill="#3FB773"/>
<path d="M93.3641 33.9169C93.3641 33.5941 93.1025 33.3326 92.7798 33.3326C92.4571 33.3326 92.1954 33.5941 92.1954 33.9169C92.1954 34.2397 92.4571 34.5012 92.7798 34.5012C93.1025 34.5012 93.3641 34.2397 93.3641 33.9169Z" fill="#3FB773"/>
<path d="M97.0791 40.3861C97.0791 40.0634 96.8175 39.8017 96.4947 39.8017C96.1721 39.8017 95.9104 40.0634 95.9104 40.3861C95.9104 40.7088 96.1721 40.9704 96.4947 40.9704C96.8175 40.9704 97.0791 40.7088 97.0791 40.3861Z" fill="#3FB773"/>
<path d="M20.2537 41.0538C20.2537 40.7312 19.9922 40.4695 19.6694 40.4695C19.3468 40.4695 19.0851 40.7312 19.0851 41.0538C19.0851 41.3766 19.3468 41.6382 19.6694 41.6382C19.9922 41.6382 20.2537 41.3766 20.2537 41.0538Z" fill="#3FB773"/>
<path d="M24.0797 47.5232C24.0797 47.2006 23.8181 46.939 23.4953 46.939C23.1727 46.939 22.911 47.2006 22.911 47.5232C22.911 47.846 23.1727 48.1077 23.4953 48.1077C23.8181 48.1077 24.0797 47.846 24.0797 47.5232Z" fill="#3FB773"/>
<path d="M27.9057 53.9929C27.9057 53.6701 27.6442 53.4086 27.3214 53.4086C26.9988 53.4086 26.7371 53.6701 26.7371 53.9929C26.7371 54.3155 26.9988 54.5772 27.3214 54.5772C27.6442 54.5772 27.9057 54.3155 27.9057 53.9929Z" fill="#3FB773"/>
<path d="M31.7315 60.4621C31.7315 60.1395 31.47 59.8778 31.1472 59.8778C30.8246 59.8778 30.5629 60.1395 30.5629 60.4621C30.5629 60.7849 30.8246 61.0464 31.1472 61.0464C31.47 61.0464 31.7315 60.7849 31.7315 60.4621Z" fill="#3FB773"/>
<path d="M35.5576 66.9313C35.5576 66.6087 35.296 66.347 34.9732 66.347C34.6506 66.347 34.3889 66.6087 34.3889 66.9313C34.3889 67.2541 34.6506 67.5156 34.9732 67.5156C35.296 67.5156 35.5576 67.2541 35.5576 66.9313Z" fill="#3FB773"/>
<path d="M27.7946 41.0538C27.7946 40.7312 27.5329 40.4695 27.2103 40.4695C26.8875 40.4695 26.626 40.7312 26.626 41.0538C26.626 41.3766 26.8875 41.6382 27.2103 41.6382C27.5329 41.6382 27.7946 41.3766 27.7946 41.0538Z" fill="#3FB773"/>
<path d="M31.6206 47.5232C31.6206 47.2006 31.3589 46.939 31.0362 46.939C30.7135 46.939 30.4519 47.2006 30.4519 47.5232C30.4519 47.846 30.7135 48.1077 31.0362 48.1077C31.3589 48.1077 31.6206 47.846 31.6206 47.5232Z" fill="#3FB773"/>
<path d="M35.4465 53.9929C35.4465 53.6701 35.1848 53.4086 34.8622 53.4086C34.5394 53.4086 34.2778 53.6701 34.2778 53.9929C34.2778 54.3155 34.5394 54.5772 34.8622 54.5772C35.1848 54.5772 35.4465 54.3155 35.4465 53.9929Z" fill="#3FB773"/>
<path d="M20.2537 41.1513C20.2537 40.8285 19.9922 40.567 19.6694 40.567C19.3468 40.567 19.0851 40.8285 19.0851 41.1513C19.0851 41.4739 19.3468 41.7356 19.6694 41.7356C19.9922 41.7356 20.2537 41.4739 20.2537 41.1513Z" fill="#3FB773"/>
<path d="M24.0797 34.6821C24.0797 34.3594 23.8181 34.0978 23.4953 34.0978C23.1727 34.0978 22.911 34.3594 22.911 34.6821C22.911 35.0048 23.1727 35.2665 23.4953 35.2665C23.8181 35.2665 24.0797 35.0048 24.0797 34.6821Z" fill="#3FB773"/>
<path d="M27.9057 28.2126C27.9057 27.89 27.6442 27.6283 27.3214 27.6283C26.9988 27.6283 26.7371 27.89 26.7371 28.2126C26.7371 28.5354 26.9988 28.7969 27.3214 28.7969C27.6442 28.7969 27.9057 28.5354 27.9057 28.2126Z" fill="#3FB773"/>
<path d="M31.7315 21.7434C31.7315 21.4206 31.47 21.1591 31.1472 21.1591C30.8246 21.1591 30.5629 21.4206 30.5629 21.7434C30.5629 22.0662 30.8246 22.3277 31.1472 22.3277C31.47 22.3277 31.7315 22.0662 31.7315 21.7434Z" fill="#3FB773"/>
<path d="M35.5576 15.2603C35.5576 14.9375 35.296 14.6759 34.9732 14.6759C34.6506 14.6759 34.3889 14.9375 34.3889 15.2603C34.3889 15.583 34.6506 15.8446 34.9732 15.8446C35.296 15.8446 35.5576 15.583 35.5576 15.2603Z" fill="#3FB773"/>
<path d="M27.7946 41.1513C27.7946 40.8285 27.5329 40.567 27.2103 40.567C26.8875 40.567 26.626 40.8285 26.626 41.1513C26.626 41.4739 26.8875 41.7356 27.2103 41.7356C27.5329 41.7356 27.7946 41.4739 27.7946 41.1513Z" fill="#3FB773"/>
<path d="M31.6206 34.6821C31.6206 34.3594 31.3589 34.0978 31.0362 34.0978C30.7135 34.0978 30.4519 34.3594 30.4519 34.6821C30.4519 35.0048 30.7135 35.2665 31.0362 35.2665C31.3589 35.2665 31.6206 35.0048 31.6206 34.6821Z" fill="#3FB773"/>
<path d="M35.4465 28.2126C35.4465 27.89 35.1848 27.6283 34.8622 27.6283C34.5394 27.6283 34.2778 27.89 34.2778 28.2126C34.2778 28.5354 34.5394 28.7969 34.8622 28.7969C35.1848 28.7969 35.4465 28.5354 35.4465 28.2126Z" fill="#3FB773"/>
<path d="M72.8416 21.4208C72.8416 20.0838 71.7578 19 70.4208 19C69.0839 19 68 20.0838 68 21.4208C68 22.7578 69.0839 23.8416 70.4208 23.8416C71.7578 23.8416 72.8416 22.7578 72.8416 21.4208Z" fill="#3FB773"/>
<path d="M72.8416 59.4208C72.8416 58.0838 71.7578 57 70.4208 57C69.0839 57 68 58.0838 68 59.4208C68 60.7578 69.0839 61.8416 70.4208 61.8416C71.7578 61.8416 72.8416 60.7578 72.8416 59.4208Z" fill="#3FB773"/>
</g>
<defs>
<clipPath id="clip0">
<rect width="81" height="115" fill="white" transform="translate(0 81) rotate(-90)"/>
</clipPath>
</defs>
</svg>
