<svg width="22" height="22" viewBox="0 0 22 22" fill="none" xmlns="http://www.w3.org/2000/svg">
<path d="M19.25 7.33333C17.875 7.33333 17.1416 8.61667 17.5083 9.625L14.2083 12.925C13.9333 12.8333 13.5666 12.8333 13.2916 12.925L10.9083 10.5417C11.275 9.53333 10.5416 8.25 9.16663 8.25C7.88329 8.25 7.05829 9.53333 7.42496 10.5417L3.20829 14.6667C2.19996 14.3917 0.916626 15.125 0.916626 16.5C0.916626 17.5083 1.74163 18.3333 2.74996 18.3333C4.03329 18.3333 4.85829 17.05 4.49163 16.0417L8.61663 11.825C8.89163 11.9167 9.25829 11.9167 9.53329 11.825L11.9166 14.2083C11.6416 15.125 12.375 16.5 13.75 16.5C15.125 16.5 15.8583 15.2167 15.4916 14.2083L18.7916 10.9083C19.8 11.1833 21.0833 10.45 21.0833 9.16667C21.0833 8.15833 20.2583 7.33333 19.25 7.33333ZM13.75 8.25L14.575 6.325L16.5 5.5L14.575 4.675L13.75 2.75L12.925 4.675L11 5.5L12.925 6.325L13.75 8.25ZM3.20829 10.0833L3.66663 8.25L5.49996 7.79167L3.66663 7.33333L3.20829 5.5L2.74996 7.33333L0.916626 7.79167L2.74996 8.25L3.20829 10.0833Z" fill="white"/>
</svg>
