<svg width="22" height="22" viewBox="0 0 22 22" fill="none" xmlns="http://www.w3.org/2000/svg">
<g clip-path="url(#clip0)">
<path d="M19.9583 0.625H3.04167C1.70042 0.625 0.625 1.70042 0.625 3.04167V7.875H3.04167V3.04167H19.9583V19.9583H3.04167V15.125H0.625V19.9583C0.625 20.5993 0.879612 21.214 1.33283 21.6672C1.78604 22.1204 2.40073 22.375 3.04167 22.375H19.9583C20.5993 22.375 21.214 22.1204 21.6672 21.6672C22.1204 21.214 22.375 20.5993 22.375 19.9583V3.04167C22.375 1.70042 21.2875 0.625 19.9583 0.625ZM9.18 15.8258L10.8958 17.5417L16.9375 11.5L10.8958 5.45833L9.18 7.16208L12.3096 10.2917H0.625V12.7083H12.3096L9.18 15.8258Z" fill="white"/>
</g>
<defs>
<clipPath id="clip0">
<rect width="22" height="22" fill="white"/>
</clipPath>
</defs>
</svg>
